<?xml version="1.0" encoding="UTF-8"?>
<svg xmlns="http://www.w3.org/2000/svg" xmlns:xlink="http://www.w3.org/1999/xlink" width="24px" height="24px" viewBox="0 0 24 24" version="1.1">
<g id="surface1">
<path style=" stroke:none;fill-rule:nonzero;fill:rgb(0%,0%,0%);fill-opacity:1;" d="M 12 0 C 5.371094 0 0 5.371094 0 12 C 0 18.628906 5.371094 24 12 24 C 18.628906 24 24 18.628906 24 12 C 24 5.371094 18.628906 0 12 0 Z M 19.492188 19.484375 C 18.515625 20.460938 17.386719 21.226562 16.125 21.753906 C 14.820312 22.308594 13.433594 22.585938 12 22.585938 C 10.570312 22.585938 9.183594 22.304688 7.875 21.753906 C 6.613281 21.21875 5.480469 20.457031 4.507812 19.484375 C 3.535156 18.511719 2.769531 17.382812 2.242188 16.121094 C 1.6875 14.816406 1.40625 13.429688 1.40625 12 C 1.40625 10.570312 1.6875 9.183594 2.234375 7.875 C 2.769531 6.613281 3.535156 5.480469 4.503906 4.507812 C 5.484375 3.535156 6.613281 2.769531 7.875 2.234375 C 9.183594 1.6875 10.570312 1.40625 12 1.40625 C 13.429688 1.40625 14.816406 1.6875 16.125 2.234375 C 17.386719 2.769531 18.519531 3.535156 19.492188 4.503906 C 20.464844 5.480469 21.230469 6.609375 21.757812 7.871094 C 22.3125 9.171875 22.589844 10.5625 22.589844 11.996094 C 22.589844 13.425781 22.308594 14.8125 21.757812 16.121094 C 21.226562 17.382812 20.460938 18.515625 19.492188 19.484375 Z M 19.492188 19.484375 "/>
<path style=" stroke:none;fill-rule:nonzero;fill:rgb(0%,0%,0%);fill-opacity:1;" d="M 13.585938 7.90625 C 14.066406 7.90625 14.582031 8.058594 14.582031 8.058594 L 14.890625 6.21875 C 14.890625 6.21875 14.234375 5.996094 12.671875 5.996094 C 11.710938 5.996094 11.152344 6.359375 10.742188 6.898438 C 10.359375 7.410156 10.34375 8.230469 10.34375 8.761719 L 10.34375 9.964844 L 9.101562 9.964844 L 9.101562 11.761719 L 10.34375 11.761719 L 10.34375 17.996094 L 12.671875 17.996094 L 12.671875 11.761719 L 14.511719 11.761719 L 14.648438 9.964844 L 12.671875 9.964844 L 12.671875 8.5625 C 12.671875 8.082031 13.101562 7.90625 13.585938 7.90625 Z M 13.585938 7.90625 "/>
</g>
</svg>
