<?xml version="1.0" encoding="UTF-8"?>
<svg xmlns="http://www.w3.org/2000/svg" xmlns:xlink="http://www.w3.org/1999/xlink" width="24px" height="24px" viewBox="0 0 24 24" version="1.1">
<g id="surface1">
<path style=" stroke:none;fill-rule:nonzero;fill:rgb(0%,0%,0%);fill-opacity:1;" d="M 16.726562 6.300781 C 16.125 6.300781 15.675781 6.75 15.675781 7.351562 C 15.675781 7.949219 16.125 8.398438 16.726562 8.398438 C 17.324219 8.398438 17.773438 7.949219 17.773438 7.351562 C 17.773438 6.75 17.324219 6.300781 16.726562 6.300781 Z M 16.726562 6.300781 "/>
<path style=" stroke:none;fill-rule:nonzero;fill:rgb(0%,0%,0%);fill-opacity:1;" d="M 12 7.648438 C 9.523438 7.648438 7.574219 9.675781 7.574219 12.074219 C 7.574219 14.476562 9.601562 16.5 12 16.5 C 14.398438 16.5 16.425781 14.476562 16.425781 12.074219 C 16.425781 9.675781 14.476562 7.648438 12 7.648438 Z M 12 14.925781 C 10.425781 14.925781 9.148438 13.648438 9.148438 12.074219 C 9.148438 10.5 10.425781 9.226562 12 9.226562 C 13.574219 9.226562 14.851562 10.5 14.851562 12.074219 C 14.851562 13.648438 13.574219 14.925781 12 14.925781 Z M 12 14.925781 "/>
<path style=" stroke:none;fill-rule:nonzero;fill:rgb(0%,0%,0%);fill-opacity:1;" d="M 15.601562 3 L 8.476562 3 C 5.398438 3 3 5.398438 3 8.398438 L 3 15.523438 C 3 18.523438 5.398438 20.925781 8.398438 20.925781 L 15.523438 20.925781 C 18.523438 20.925781 20.925781 18.523438 20.925781 15.523438 L 20.925781 8.398438 C 21 5.398438 18.601562 3 15.601562 3 Z M 19.273438 15.601562 C 19.273438 17.625 17.625 19.351562 15.523438 19.351562 L 8.398438 19.351562 C 6.375 19.351562 4.648438 17.699219 4.648438 15.601562 L 4.648438 8.476562 C 4.648438 6.449219 6.300781 4.726562 8.398438 4.726562 L 15.523438 4.726562 C 17.550781 4.726562 19.273438 6.375 19.273438 8.476562 Z M 19.273438 15.601562 "/>
</g>
</svg>
